<svg width="29" height="28" viewBox="0 0 29 28" fill="none" xmlns="http://www.w3.org/2000/svg">
<path d="M16.1972 2C16.7174 2 17.1903 2.06482 17.6274 2.20177C18.0848 2.34509 18.4979 2.56618 18.8709 2.86725C19.2272 3.15494 19.5435 3.51249 19.832 3.9453L20.0978 4.34251L20.2318 4.53153C20.3286 4.6613 20.3937 4.72903 20.4671 4.78975C20.5537 4.86135 20.6403 4.90766 20.7479 4.93999C20.8756 4.9784 21.0057 4.99554 21.3249 4.99922L21.5431 5.00093C22.7355 5.05239 23.4143 5.21632 24.1299 5.59903C24.8909 6.00598 25.494 6.60914 25.901 7.37008C26.3456 8.20148 26.5 9.00096 26.5 10.615V16.5903C26.5 18.7733 26.2973 19.823 25.714 20.9137C25.185 21.9028 24.4028 22.685 23.4137 23.214C22.323 23.7973 21.2733 24 19.0903 24H9.90971C7.72671 24 6.67697 23.7973 5.58629 23.214C4.5972 22.685 3.81498 21.9028 3.28602 20.9137C2.73341 19.8804 2.52239 18.8839 2.50171 16.9257V10.3217C2.52043 8.9009 2.68217 8.14952 3.09902 7.37008C3.50598 6.60914 4.10914 6.00598 4.87008 5.59903C5.56098 5.22953 6.21673 5.06518 7.32135 5.01599L7.40966 5.00405L7.5 5L7.67513 4.99922C7.99426 4.99554 8.12436 4.9784 8.25214 4.93999C8.35973 4.90766 8.44627 4.86135 8.53286 4.78975C8.63569 4.70474 8.72212 4.606 8.90221 4.34251L9.16795 3.9453C9.45649 3.51249 9.77275 3.15494 10.1291 2.86725C10.5021 2.56618 10.9152 2.34509 11.3726 2.20177C11.8097 2.06482 12.2826 2 12.8028 2H16.1972ZM16.1972 4H12.8028C12.4761 4 12.2032 4.03741 11.9706 4.11027C11.7528 4.17852 11.563 4.28011 11.3854 4.42348C11.1958 4.57654 11.0133 4.78288 10.832 5.0547L10.5283 5.50715C10.2573 5.8987 10.0625 6.1201 9.80723 6.33118C9.51501 6.57277 9.1909 6.74623 8.82778 6.85536C8.48872 6.95726 8.17821 6.99507 7.64124 6.99954L7.58745 7.0058L7.31753 7.0183C6.56506 7.05673 6.20828 7.1514 5.81328 7.36265C5.40088 7.58321 5.0832 7.90088 4.86265 8.31328C4.59415 8.81533 4.5 9.30289 4.5 10.615V16.5903C4.5 18.4714 4.64248 19.2092 5.04964 19.9705C5.39221 20.6111 5.88894 21.1078 6.52948 21.4504C7.21068 21.8147 7.87304 21.9671 9.35233 21.9951L9.90971 22H19.0903L19.6477 21.9951C21.127 21.9671 21.7893 21.8147 22.4705 21.4504C23.1111 21.1078 23.6078 20.6111 23.9504 19.9705C24.3147 19.2893 24.4671 18.627 24.4951 17.1477L24.5 16.5903V10.615L24.4954 10.16C24.4737 9.18077 24.3723 8.75257 24.1373 8.31328C23.9168 7.90088 23.5991 7.58321 23.1867 7.36265C22.7559 7.13224 22.3671 7.03835 21.5 7L21.2578 6.99825C20.7817 6.98994 20.4895 6.95071 20.1722 6.85536C19.8091 6.74623 19.485 6.57277 19.1928 6.33118C18.9375 6.1201 18.7427 5.8987 18.4717 5.50715L18.1679 5.0547C17.9867 4.78288 17.8042 4.57654 17.6146 4.42348C17.437 4.28011 17.2472 4.17852 17.0294 4.11027C16.7968 4.03741 16.5239 4 16.1972 4ZM14.5 8.5C17.3997 8.5 19.75 10.8503 19.75 13.75C19.75 16.6497 17.3997 19 14.5 19C11.6003 19 9.25 16.6497 9.25 13.75C9.25 10.8503 11.6003 8.5 14.5 8.5ZM14.5 10.5C12.7048 10.5 11.25 11.9548 11.25 13.75C11.25 15.5452 12.7048 17 14.5 17C16.2952 17 17.75 15.5452 17.75 13.75C17.75 11.9548 16.2952 10.5 14.5 10.5Z" fill="#3F8AE0"/>
</svg>
