<svg width="24" height="24" viewBox="0 0 24 24" fill="none" xmlns="http://www.w3.org/2000/svg">
<path fill-rule="evenodd" clip-rule="evenodd" d="M8.10001 21C8.10001 21.5539 8.363 22.1785 8.83501 22.5325C9.52432 23.0495 10.3806 22.8779 11.1134 22.1591L14.8382 18.9H18.5C20.4971 18.9 21.9 17.4971 21.9 15.5V7.5C21.9 5.50294 20.4971 4.1 18.5 4.1H6.50001C4.50295 4.1 3.10001 5.50294 3.10001 7.5V15.5C3.10001 17.4971 4.50295 18.9 6.50001 18.9H8.10001V21ZM14.6879 17.1C14.3488 17.1 14.0212 17.2231 13.766 17.4464L9.90001 20.8296V18.001C9.79916 17.6513 9.74873 17.4765 9.63611 17.3639C9.52348 17.2513 9.34866 17.2008 8.99901 17.1H6.50001C5.49706 17.1 4.90001 16.5029 4.90001 15.5V7.5C4.90001 6.49705 5.49706 5.9 6.50001 5.9H18.5C19.503 5.9 20.1 6.49705 20.1 7.5V15.5C20.1 16.5029 19.503 17.1 18.5 17.1H14.6879Z" fill="#99A2AD"/>
</svg>
