<svg width="24" height="25" viewBox="0 0 24 25" fill="none" xmlns="http://www.w3.org/2000/svg">
<path opacity="0.12" d="M12 24.5173C18.6274 24.5173 24 19.1448 24 12.5173C24 5.88992 18.6274 0.517334 12 0.517334C5.37258 0.517334 0 5.88992 0 12.5173C0 19.1448 5.37258 24.5173 12 24.5173Z" fill="#818C99"/>
<path d="M16.7364 7.78094C17.0879 8.13241 17.0879 8.70226 16.7364 9.05373L13.273 12.5173L16.7364 15.9809C17.0586 16.3031 17.0854 16.8088 16.817 17.1616L16.7364 17.2537C16.3849 17.6052 15.8151 17.6052 15.4636 17.2537L12 13.7903L8.5364 17.2537C8.18492 17.6052 7.61508 17.6052 7.2636 17.2537C6.91213 16.9023 6.91213 16.3324 7.2636 15.9809L10.727 12.5173L7.2636 9.05373C6.94142 8.73155 6.91457 8.22587 7.18306 7.8731L7.2636 7.78094C7.61508 7.42947 8.18492 7.42947 8.5364 7.78094L12 11.2443L15.4636 7.78094C15.8151 7.42947 16.3849 7.42947 16.7364 7.78094Z" fill="#818C99"/>
</svg>
