<svg width="32" height="32" viewBox="0 0 32 32" fill="none" xmlns="http://www.w3.org/2000/svg">
<path opacity="0.5" d="M16 32C24.8366 32 32 24.8366 32 16C32 7.16344 24.8366 0 16 0C7.16344 0 0 7.16344 0 16C0 24.8366 7.16344 32 16 32Z" fill="black"/>
<path d="M22.3152 9.68478C22.7838 10.1534 22.7838 10.9132 22.3152 11.3818L17.6973 16L22.3152 20.6181C22.7448 21.0477 22.7806 21.722 22.4226 22.1923L22.3152 22.3152C21.8466 22.7838 21.0868 22.7838 20.6181 22.3152L16 17.6973L11.3819 22.3152C10.9132 22.7838 10.1534 22.7838 9.6848 22.3152C9.21617 21.8466 9.21617 21.0868 9.6848 20.6181L14.3027 16L9.6848 11.3818C9.25522 10.9523 9.21943 10.278 9.57741 9.80767L9.6848 9.68478C10.1534 9.21616 10.9132 9.21616 11.3819 9.68478L16 14.3026L20.6181 9.68478C21.0868 9.21616 21.8466 9.21616 22.3152 9.68478Z" fill="white"/>
</svg>
