<svg width="24" height="24" viewBox="0 0 24 24" fill="none" xmlns="http://www.w3.org/2000/svg">
<path d="M17.4959 3.30396L17.6006 3.37132C17.6304 3.39067 17.66 3.41017 17.6895 3.42982L17.601 3.37141C17.6712 3.41712 17.7409 3.46366 17.8099 3.51102L17.6895 3.42982C17.7646 3.47974 17.8389 3.53062 17.9126 3.58245L17.8099 3.51102C17.8816 3.56016 17.9526 3.61019 18.0229 3.66108L18.0229 3.66113C18.1294 3.73815 18.2344 3.81722 18.3378 3.89822C18.4644 3.99746 18.5888 4.09966 18.7106 4.20468C18.9113 4.37752 19.1054 4.5582 19.2922 4.74605L19.2153 4.66956C19.2708 4.72421 19.3257 4.77949 19.38 4.83538L19.2922 4.74605C19.3598 4.81399 19.4265 4.88287 19.4921 4.95266L19.38 4.83538C19.4427 4.89996 19.5046 4.96536 19.5656 5.03155L19.4921 4.95266C19.5479 5.01195 19.603 5.07189 19.6574 5.13248L19.5656 5.03155C19.6254 5.09643 19.6843 5.16207 19.7424 5.22847L19.6574 5.13248C19.7155 5.19726 19.7728 5.26278 19.8293 5.32903L19.7424 5.22847C19.8008 5.29511 19.8583 5.36251 19.9149 5.43065L19.8293 5.32903C19.8869 5.39657 19.9437 5.46487 19.9996 5.5339L19.9994 5.53369C20.2392 5.82998 20.4627 6.13964 20.6688 6.46152L20.594 6.34644C20.6521 6.43461 20.7089 6.52373 20.7644 6.61376L20.6688 6.46152C20.7134 6.53119 20.7572 6.60144 20.8001 6.67224L20.7644 6.61376C20.8013 6.67365 20.8376 6.73395 20.8732 6.79465L20.8001 6.67224C20.8494 6.7534 20.8975 6.83529 20.9445 6.9179L20.9446 6.91807C21.0168 7.04483 21.0865 7.17345 21.1534 7.30369C21.1781 7.35176 21.2023 7.39974 21.2262 7.44793C21.2907 7.57844 21.3525 7.71061 21.4116 7.84427C21.6082 8.28868 21.7743 8.75014 21.9072 9.22549L21.9615 9.42777L22.0356 9.73551C22.0442 9.77373 22.0526 9.81202 22.0608 9.85039L22.1183 10.1419L22.1708 10.4572C22.1893 10.58 22.2056 10.7036 22.2197 10.8278L22.1886 10.5808C22.2036 10.6895 22.2169 10.7988 22.2285 10.9085L22.2285 10.9084C22.2549 11.1585 22.2723 11.4112 22.2804 11.6662L22.2804 11.6658L22.2857 12L22.2813 12.306C22.2798 12.3573 22.2779 12.4086 22.2756 12.4598C22.2652 12.6969 22.2467 12.932 22.2205 13.1648L22.2281 13.095C22.2163 13.2065 22.2027 13.3175 22.1874 13.4279L22.2205 13.1648C22.2073 13.2817 22.1922 13.398 22.1751 13.5136L22.1751 13.5137C22.1382 13.764 22.0923 14.0114 22.0376 14.2556L22.0376 14.2559L21.9617 14.5714L21.9072 14.7745C21.751 15.3334 21.5488 15.8731 21.3049 16.3892C21.1793 16.6551 21.0424 16.9151 20.8949 17.1682L20.9432 17.0845C20.9027 17.1555 20.8614 17.2261 20.8193 17.2961L20.8949 17.1682C20.8482 17.2485 20.8005 17.328 20.7516 17.4068L20.8193 17.2961C20.7735 17.3722 20.7267 17.4476 20.679 17.5225L20.7516 17.4068C20.7008 17.489 20.6487 17.5705 20.5956 17.6511L20.679 17.5225C20.6462 17.5739 20.613 17.6249 20.5794 17.6757L20.5956 17.6511C20.5572 17.7095 20.5181 17.7675 20.4785 17.8251L20.5794 17.6757C20.5095 17.7811 20.4377 17.8852 20.364 17.9879L20.4785 17.8251C20.4272 17.8996 20.3749 17.9734 20.3217 18.0465L20.3216 18.0466C20.0971 18.3551 19.8557 18.6508 19.5989 18.9321L19.6528 18.8726C19.5926 18.9396 19.5314 19.0059 19.4694 19.0713L19.5989 18.9321C19.5343 19.0029 19.4687 19.0728 19.4022 19.1417L19.4694 19.0713C19.4144 19.1295 19.3586 19.187 19.3023 19.2438L19.4022 19.1417C19.3398 19.2063 19.2767 19.2701 19.2127 19.333L19.3023 19.2438C19.2596 19.2868 19.2165 19.3295 19.1731 19.3717L19.1734 19.3714C19.0718 19.4704 18.9684 19.5669 18.8631 19.6613C18.6354 19.8654 18.3985 20.0595 18.1532 20.243L18.2181 20.194C18.1442 20.2502 18.0694 20.3055 17.9939 20.3597L18.1532 20.243C18.0878 20.2919 18.0217 20.3401 17.9551 20.3874L17.9939 20.3597C17.9283 20.4069 17.8621 20.4532 17.7954 20.4988L17.9551 20.3874C17.8693 20.4485 17.7824 20.5083 17.6946 20.5668L17.7954 20.4988C17.74 20.5367 17.6841 20.574 17.628 20.6108L17.6946 20.5668C17.6249 20.6133 17.5545 20.6589 17.4835 20.7037L17.4837 20.7036C17.1583 20.909 16.8207 21.0967 16.4722 21.2652L16.5811 21.2118C16.497 21.2536 16.4123 21.2944 16.327 21.334L16.4722 21.2652C16.3986 21.3008 16.3246 21.3355 16.2501 21.3693L16.327 21.334C16.2486 21.3704 16.1698 21.4058 16.0904 21.4403L16.2501 21.3693C16.1606 21.41 16.0704 21.4494 15.9796 21.4875L16.0904 21.4403C16.0004 21.4793 15.9097 21.5171 15.8183 21.5537L15.9796 21.4875C15.9089 21.5172 15.8378 21.5461 15.7663 21.5743L15.8183 21.5537C15.7374 21.586 15.656 21.6174 15.5741 21.6478L15.7663 21.5743C15.6737 21.6108 15.5804 21.6459 15.4864 21.6798L15.5741 21.6478C15.4653 21.6881 15.3556 21.7266 15.2451 21.7633L15.2449 21.7634C15.0787 21.8186 14.9104 21.8698 14.7403 21.9166L14.8482 21.8863C14.7718 21.9082 14.695 21.9294 14.6178 21.9496L14.7403 21.9166C14.6517 21.9411 14.5625 21.9644 14.4729 21.9865L14.6178 21.9496C14.5261 21.9737 14.4339 21.9965 14.3413 22.0181L14.4729 21.9865C14.3929 22.0062 14.3126 22.025 14.232 22.0429L14.3413 22.0181C14.2559 22.0379 14.1702 22.0567 14.0841 22.0745L14.232 22.0429C14.1327 22.0648 14.0329 22.0854 13.9326 22.1044L14.0841 22.0745C13.9997 22.0918 13.9149 22.1082 13.8298 22.1234L13.9326 22.1044C13.8538 22.1194 13.7747 22.1335 13.6953 22.1467L13.6956 22.1466C13.5924 22.1637 13.4889 22.1793 13.385 22.1933L13.2825 22.2065L13.0357 22.2342C12.6951 22.2683 12.3496 22.2857 12 22.2857C11.3759 22.2857 10.7648 22.2301 10.1713 22.1236L10.2945 22.1456C10.2003 22.1298 10.1066 22.1128 10.0133 22.0945L10.1713 22.1236C10.0962 22.1101 10.0213 22.0958 9.94679 22.0807L9.94659 22.0813C9.77155 22.0452 9.59794 22.0053 9.42606 21.961L9.48805 21.9773C9.40802 21.9572 9.32837 21.9361 9.2491 21.9142L9.42606 21.961C9.33872 21.9385 9.25183 21.9149 9.1654 21.8902L9.16578 21.8907C8.94499 21.8271 8.72762 21.7569 8.51353 21.6798L8.75506 21.7638C8.62533 21.7206 8.49674 21.675 8.36935 21.6269L8.51353 21.6798C8.432 21.6504 8.35094 21.62 8.27038 21.5887L8.36935 21.6269C8.27317 21.5906 8.17767 21.5529 8.08289 21.5138L8.27038 21.5887C8.19002 21.5574 8.11016 21.5251 8.0308 21.4919L8.08289 21.5138C8.01508 21.4859 7.94764 21.4572 7.88057 21.4279L8.0308 21.4919C7.94874 21.4575 7.86722 21.4222 7.78626 21.3858L7.88057 21.4279C7.79782 21.3916 7.71564 21.3544 7.63405 21.3161L7.78626 21.3858C7.70661 21.3499 7.62749 21.3131 7.54893 21.2754L7.63405 21.3161C7.56188 21.2822 7.49018 21.2475 7.41894 21.212L7.41896 21.2118C7.29416 21.1498 7.17081 21.0851 7.04898 21.0181C6.99574 20.9886 6.94258 20.9587 6.88971 20.9284C6.71372 20.8276 6.54118 20.7217 6.3721 20.611L6.51634 20.7036C6.4454 20.6588 6.37504 20.6132 6.30529 20.5667L6.3721 20.611C6.31164 20.5714 6.25162 20.5312 6.19206 20.4903L6.30529 20.5667C6.22879 20.5158 6.15302 20.4638 6.07798 20.4109L6.19206 20.4903C6.11646 20.4385 6.04158 20.3857 5.96746 20.3319L6.07798 20.4109C6.00221 20.3574 5.9272 20.303 5.85296 20.2476L5.96746 20.3319C5.90502 20.2866 5.84312 20.2407 5.78176 20.194L5.78187 20.194C5.55985 20.0254 5.34501 19.8479 5.13774 19.6621C5.0184 19.5551 4.90154 19.4454 4.78729 19.333L4.82656 19.3714C4.78334 19.3294 4.74049 19.2869 4.69802 19.2441L4.78729 19.333C4.72328 19.27 4.6601 19.2062 4.59775 19.1416L4.69802 19.2441C4.64153 19.1872 4.58571 19.1296 4.53056 19.0714L4.59775 19.1416C4.5314 19.0729 4.46601 19.0032 4.40158 18.9326L4.53056 19.0714C4.46848 19.0058 4.40726 18.9394 4.34691 18.8723L4.3472 18.8726C4.09422 18.5911 3.85681 18.2958 3.63598 17.9879L3.67841 18.0466C3.62523 17.9736 3.57299 17.8998 3.52171 17.8253L3.63598 17.9879C3.56243 17.8854 3.49072 17.7814 3.4209 17.6761L3.52171 17.8253C3.48201 17.7676 3.44287 17.7095 3.40432 17.651L3.4209 17.6761C3.38716 17.6252 3.35387 17.574 3.32102 17.5225L3.40432 17.651C3.35121 17.5704 3.2992 17.4889 3.24831 17.4067L3.32102 17.5225C3.27335 17.4477 3.22662 17.3723 3.18084 17.2962L3.24831 17.4067C3.1996 17.3281 3.15191 17.2487 3.10528 17.1686L3.18084 17.2962C3.1386 17.226 3.09717 17.1553 3.05657 17.084L3.05684 17.0845C2.90694 16.8214 2.76855 16.5515 2.64205 16.275L2.69515 16.3892C2.6571 16.3087 2.62007 16.2276 2.58406 16.146L2.58381 16.1454C2.38928 15.7042 2.22467 15.2462 2.09284 14.7745L2.03832 14.5714L1.96246 14.2559C1.95518 14.2234 1.94806 14.1908 1.94109 14.1582C1.88973 13.9176 1.84683 13.6743 1.81264 13.4281L1.8249 13.5137C1.80782 13.3979 1.79267 13.2815 1.77948 13.1645L1.81264 13.4281C1.79731 13.3177 1.78372 13.2068 1.77192 13.0953L1.77189 13.095C1.74509 12.8417 1.72746 12.5855 1.71939 12.3268L1.71941 12.3274L1.71429 12L1.71962 11.6658C1.72096 11.6238 1.72255 11.582 1.72439 11.5402C1.73494 11.3005 1.75368 11.063 1.78034 10.8279L1.77153 10.9084C1.78311 10.7986 1.79642 10.6894 1.81143 10.5806L1.81141 10.5808L1.82923 10.4572L1.8817 10.1419C1.90656 10.0056 1.93412 9.87021 1.9643 9.73585L1.96438 9.73551L2.03854 9.42777L2.09284 9.22549C2.22569 8.75014 2.39183 8.28868 2.58858 7.84379L2.57055 7.8848C2.63501 7.73731 2.70283 7.59163 2.7739 7.44784C2.79768 7.39974 2.82187 7.35176 2.84642 7.30401C2.93536 7.131 3.02888 6.96116 3.12697 6.79432L3.05537 6.91807C3.10246 6.83536 3.15068 6.75335 3.19998 6.67209L3.12697 6.79432C3.16255 6.73381 3.19873 6.6737 3.2355 6.61399L3.19998 6.67209C3.24299 6.60121 3.28682 6.5309 3.33147 6.46116L3.2355 6.61399C3.29097 6.52391 3.3478 6.43475 3.40595 6.34653L3.40601 6.34644C3.61558 6.0285 3.8424 5.72278 4.08508 5.43072L4.00273 5.5311C4.05787 5.46303 4.11386 5.39566 4.17068 5.32904L4.08508 5.43072C4.14174 5.36253 4.19926 5.29509 4.25763 5.2284L4.17068 5.32904C4.22715 5.26282 4.28445 5.19733 4.34256 5.13259L4.25763 5.2284C4.3158 5.16195 4.37481 5.09625 4.43464 5.03133L4.34256 5.13259C4.39693 5.07199 4.45202 5.01205 4.5078 4.95277L4.43464 5.03133C4.49559 4.9652 4.5574 4.89986 4.62004 4.83535L4.5078 4.95277C4.57358 4.88286 4.64034 4.81387 4.70803 4.74582L4.62004 4.83535C4.67419 4.77959 4.72896 4.72443 4.78435 4.66991L4.78469 4.66956C4.94778 4.50901 5.11657 4.35354 5.29042 4.20378C5.41184 4.09918 5.53592 3.99722 5.66238 3.89816C5.79846 3.79156 5.93747 3.68819 6.07911 3.5883L5.97716 3.66113C6.06483 3.5977 6.15354 3.53562 6.24326 3.47491L6.07911 3.5883C6.14444 3.54224 6.21032 3.49692 6.27675 3.45235L6.24326 3.47491C6.31046 3.42944 6.37824 3.38474 6.44657 3.34083L6.27675 3.45235C6.3513 3.40233 6.42654 3.35327 6.50245 3.30517L6.50253 3.30512C6.62972 3.22453 6.75888 3.14661 6.88986 3.07149C6.94258 3.04124 6.99574 3.01137 7.04919 2.98197C7.20037 2.8988 7.35374 2.81938 7.50931 2.74377L7.43685 2.77934C7.50941 2.74336 7.58245 2.70822 7.65597 2.67391L7.50931 2.74377C7.59608 2.70159 7.68354 2.6606 7.77166 2.62081L7.65597 2.67391C7.7371 2.63606 7.81881 2.59923 7.90107 2.56345L7.77166 2.62081C7.8529 2.58413 7.9347 2.54847 8.01705 2.51385L8.01701 2.51387C8.15531 2.45573 8.2951 2.40055 8.43634 2.34838C8.54165 2.30948 8.64789 2.27222 8.75491 2.23666L8.62307 2.28146C8.69493 2.2565 8.76715 2.2323 8.83973 2.2089L8.75491 2.23666C8.83631 2.20962 8.91817 2.18357 9.00046 2.15852L8.83973 2.2089C8.937 2.17752 9.03491 2.14756 9.13343 2.11903L9.00046 2.15852C9.08696 2.13219 9.17394 2.10697 9.26138 2.08287L9.13343 2.11903C9.21965 2.09406 9.30633 2.07019 9.39346 2.04743L9.26138 2.08287C9.34951 2.05859 9.43811 2.03545 9.52716 2.01347L9.39346 2.04743C9.47998 2.02483 9.56694 2.00334 9.65432 1.98295L9.52716 2.01347C9.61134 1.9927 9.69593 1.97296 9.78091 1.95427L9.65432 1.98295C9.73837 1.96335 9.82281 1.94478 9.90764 1.92725L9.78091 1.95427C9.87791 1.93294 9.97543 1.91298 10.0734 1.89441L9.90764 1.92725C9.99479 1.90924 10.0823 1.89233 10.1703 1.87654L10.0734 1.89441C10.1502 1.87986 10.2273 1.86616 10.3047 1.85333L10.3045 1.85336C10.4076 1.83626 10.5111 1.82071 10.615 1.80672L10.7175 1.79346L10.9643 1.76577C11.3049 1.73172 11.6504 1.71428 12 1.71428C12.6241 1.71428 13.2353 1.76987 13.8287 1.87636L13.7055 1.85442C13.7996 1.87015 13.8934 1.88716 13.9867 1.90543L13.8287 1.87636C13.9038 1.88984 13.9787 1.90413 14.0532 1.91923L14.0534 1.91872C14.2337 1.9558 14.4125 1.99709 14.5894 2.04298L14.5087 2.02192C14.5863 2.04136 14.6635 2.06169 14.7403 2.08289L14.5894 2.04298C14.6762 2.06547 14.7625 2.08907 14.8483 2.11376L14.8482 2.11329C15.0267 2.16505 15.203 2.22103 15.3772 2.28156L15.377 2.28112C15.4995 2.32405 15.6207 2.36877 15.7409 2.41569L15.6008 2.36183C15.6944 2.39683 15.7873 2.43315 15.8796 2.47077L15.7409 2.41569C15.8189 2.44617 15.8964 2.47757 15.9735 2.50989L15.8796 2.47077C15.9531 2.50073 16.0262 2.53153 16.0989 2.56314L15.9735 2.50989C16.0591 2.54575 16.144 2.58273 16.2284 2.62082L16.0989 2.56314C16.1812 2.59896 16.263 2.63584 16.3442 2.67374L16.2284 2.62082C16.3164 2.66057 16.4038 2.70153 16.4905 2.74368L16.3442 2.67374C16.4178 2.70807 16.4909 2.74325 16.5635 2.77925L16.5632 2.77934C16.6941 2.84408 16.8233 2.91159 16.9507 2.98174C17.136 3.08386 17.3177 3.19128 17.4958 3.30403L17.4959 3.30396ZM14.07 16.1137L9.93019 16.1143C10.3729 17.8665 11.089 19.4303 11.9997 20.7117C12.9109 19.4305 13.6273 17.8663 14.07 16.1137ZM4.28377 16.1143C5.46057 18.3167 7.55277 19.9564 10.0522 20.5251C9.29943 19.2209 8.71569 17.7308 8.34476 16.1144L4.28377 16.1143ZM19.7162 16.1143L15.6555 16.1135C15.2846 17.7299 14.701 19.2201 13.9487 20.5242C16.4472 19.9564 18.5394 18.3167 19.7162 16.1143ZM8.06181 9.42807L3.64154 9.42818C3.39165 10.2413 3.25715 11.1049 3.25715 12C3.25715 12.8947 3.39156 13.7581 3.64128 14.5709L8.06177 14.5716C7.94618 13.7383 7.88572 12.8787 7.88572 12C7.88572 11.1212 7.94619 10.2615 8.06181 9.42807ZM14.3799 9.42755H9.62015C9.49479 10.2555 9.42858 11.1158 9.42858 12C9.42858 12.8838 9.49473 13.7438 9.61999 14.5714L14.38 14.5716C14.5053 13.7439 14.5714 12.8839 14.5714 12C14.5714 11.1158 14.5052 10.2555 14.3799 9.42755ZM20.3585 9.42818L15.9382 9.42807C16.0538 10.2615 16.1143 11.1212 16.1143 12C16.1143 12.8785 16.0539 13.7379 15.9383 14.5711L20.3587 14.5709C20.6085 13.7581 20.7429 12.8947 20.7429 12C20.7429 11.1049 20.6084 10.2413 20.3585 9.42818ZM10.0513 3.47578L9.899 3.51123C7.46769 4.11098 5.43699 5.72797 4.28423 7.88485L8.34474 7.88562C8.7156 6.26952 9.29919 4.7797 10.0513 3.47578ZM12 3.28778L11.9622 3.34121C11.0694 4.61265 10.3669 6.15742 9.93024 7.88546H14.0698C13.627 6.13314 12.9108 4.56928 12 3.28778ZM13.9478 3.4749L14.0033 3.57128C14.7291 4.85226 15.2934 6.30884 15.6553 7.88562L19.7158 7.88485C18.5389 5.68282 16.4469 4.04352 13.9478 3.4749Z" fill="white"/>
</svg>
