<svg width="24" height="24" viewBox="0 0 24 24" fill="none" xmlns="http://www.w3.org/2000/svg">
<path d="M8.78516 14.6495C8.78421 14.7238 8.78274 15.2157 8.78623 16.3228C8.79593 19.4013 7.93139 20.9716 6.11448 21.9466C3.92942 23.1192 1.09766 22.0531 0.801646 19.3662C0.509099 16.7107 3.21771 14.885 6.99623 14.7933L6.99603 10.8147L6.99553 7.88089L6.99587 6.36026C6.99598 6.33776 6.9961 6.31211 6.99625 6.28193C7.00454 4.78996 8.3226 3.65395 10.2448 3.28432C14.2597 2.41268 16.6636 1.94238 17.0531 1.86564C17.7577 1.72684 18.3869 1.69599 19.046 1.89517C20.1456 2.22748 20.8162 3.14943 20.8162 4.5586V10.8153L20.77 10.8147L20.8162 10.8397V13.8207C20.8162 13.8388 20.8161 13.8489 20.816 13.8567L20.8152 13.8999C20.8152 17.4432 19.6448 19.3937 16.9229 19.8869C14.9144 20.2508 12.7835 18.6938 13.0248 16.4056C13.279 13.9944 15.1719 13.0359 19.0162 12.3323V7.19784L8.99693 9.39239C8.97665 9.39714 8.88048 9.41822 8.79623 9.43704L8.79624 14.2822C8.79624 14.5138 8.79565 14.5778 8.78516 14.6495ZM6.98489 16.594C4.16026 16.6735 2.44378 17.8343 2.59082 19.1691C2.73309 20.4604 4.11076 20.9791 5.26334 20.3605C6.42718 19.736 6.95418 18.8342 6.98489 16.594ZM19.013 14.1647C16.1951 14.7122 14.9423 15.3855 14.8149 16.5943C14.7117 17.5729 15.6825 18.2823 16.602 18.1157C18.2751 17.8126 18.9696 16.7361 19.013 14.1647ZM17.4011 3.63169C17.0297 3.70486 15.0327 4.17799 11.0258 5.04761C9.83558 5.27665 8.79891 5.80815 8.79622 6.29193L8.79543 6.46003L8.7952 6.52103L8.79477 7.59312L19.0162 5.35326V4.5586C19.0162 3.93591 18.8584 3.71886 18.5253 3.61821C18.2229 3.52681 17.8376 3.5457 17.4011 3.63169Z" fill="#3F8AE0"/>
</svg>
