<svg width="28" height="28" viewBox="0 0 28 28" fill="none" xmlns="http://www.w3.org/2000/svg">
<path fill-rule="evenodd" clip-rule="evenodd" d="M2.53682 13.4989C2.53682 7.83902 7.82583 3.5 14.0184 3.5C20.211 3.5 25.5 7.83902 25.5 13.4989C25.5 19.1589 20.211 23.4979 14.0184 23.4979C12.6453 23.4979 11.3254 23.288 10.1004 22.9013C8.65556 24.2498 6.55625 24.898 3.98823 24.9989C2.94213 25.04 2.18707 23.9519 2.6251 22.978C3.2465 21.5866 4.0494 19.9915 4.14461 18.6002C3.12778 17.1195 2.53682 15.3721 2.53682 13.4989ZM14.0184 5.5C8.63333 5.5 4.53682 9.21891 4.53682 13.4989C4.53682 15.0359 5.05145 16.4778 5.95868 17.6996C6.08669 17.872 6.15582 18.081 6.15582 18.2957C6.15582 19.9295 5.50455 21.471 4.84139 22.9339C6.89746 22.7155 8.2463 22.0571 9.05965 21.1C9.33282 20.7786 9.77833 20.6631 10.1732 20.8114C11.3455 21.2516 12.6458 21.4979 14.0184 21.4979C19.4035 21.4979 23.5 17.779 23.5 13.4989C23.5 9.21891 19.4035 5.5 14.0184 5.5Z" fill="#99A2AD"/>
</svg>
