<svg width="24" height="24" viewBox="0 0 24 24" fill="none" xmlns="http://www.w3.org/2000/svg">
<path d="M12 0C12.5523 0 13 0.447715 13 1L13.0011 2.04948C17.725 2.51902 21.4815 6.2759 21.9506 10.9999L23 11C23.5523 11 24 11.4477 24 12C24 12.5523 23.5523 13 23 13L21.9505 13.0011C21.481 17.7246 17.7246 21.481 13.0011 21.9505L13 23C13 23.5523 12.5523 24 12 24C11.4477 24 11 23.5523 11 23L10.9999 21.9506C6.2759 21.4815 2.51902 17.725 2.04948 13.0011L1 13C0.447715 13 0 12.5523 0 12C0 11.4477 0.447715 11 1 11L2.04939 10.9999C2.51849 6.27556 6.27556 2.51849 10.9999 2.04939L11 1C11 0.447715 11.4477 0 12 0ZM13.001 4.06201L13 5C13 5.55228 12.5523 6 12 6C11.4477 6 11 5.55228 11 5L11 4.06189C7.38129 4.51312 4.51312 7.38129 4.06189 11L5 11C5.55228 11 6 11.4477 6 12C6 12.5523 5.55228 13 5 13L4.06201 13.001C4.51365 16.6192 7.38163 19.4869 11 19.9381L11 19C11 18.4477 11.4477 18 12 18C12.5523 18 13 18.4477 13 19L13.001 19.938C16.6189 19.4864 19.4864 16.6189 19.938 13.001L19 13C18.4477 13 18 12.5523 18 12C18 11.4477 18.4477 11 19 11L19.9381 11C19.4869 7.38163 16.6192 4.51365 13.001 4.06201ZM12 10C13.1046 10 14 10.8954 14 12C14 13.1046 13.1046 14 12 14C10.8954 14 10 13.1046 10 12C10 10.8954 10.8954 10 12 10Z" fill="#3F8AE0"/>
</svg>
