<svg width="40" height="36" viewBox="0 0 40 36" fill="none" xmlns="http://www.w3.org/2000/svg">
<path d="M28.364 19.0561C28.8848 19.2401 29.1578 19.8114 28.9738 20.3321C27.7616 23.7633 24.6396 26.1739 21.0052 26.4694L21.005 29C21.005 29.555 20.555 30.005 20 30.005C19.445 30.005 18.995 29.555 18.995 29L18.9949 26.4694C15.361 26.174 12.2394 23.7641 11.0267 20.3337C10.8427 19.813 11.1156 19.2416 11.6363 19.0576C12.157 18.8735 12.7283 19.1464 12.9124 19.6671C13.9279 22.5399 16.6528 24.5 19.75 24.5H20.25C23.3477 24.5 26.0729 22.5393 27.088 19.6659C27.272 19.1451 27.8433 18.8721 28.364 19.0561ZM20 8C22.7614 8 25 10.2386 25 13V17C25 19.7614 22.7614 22 20 22C17.2386 22 15 19.7614 15 17V13C15 10.2386 17.2386 8 20 8ZM20 10.01C18.3487 10.01 17.01 11.3487 17.01 13V17C17.01 18.6513 18.3487 19.99 20 19.99C21.6513 19.99 22.99 18.6513 22.99 17V13C22.99 11.3487 21.6513 10.01 20 10.01Z" fill="#99A2AD"/>
</svg>
